<svg viewBox="-5 -8 30 35" fill="none" xmlns="http://www.w3.org/2000/svg" class="icon icon-cart">
      <path fill="currentColor" fill-rule="evenodd" d="M16.2493 18.3333C16.5809 18.3333 16.8988 18.2016 17.1332 17.9671C17.3677 17.7327 17.4993 17.4148 17.4993 17.0833C17.4993 16.7517 17.3677 16.4338 17.1332 16.1994C16.8988 15.9649 16.5809 15.8333 16.2493 15.8333C15.9178 15.8333 15.5999 15.9649 15.3655 16.1994C15.131 16.4338 14.9993 16.7517 14.9993 17.0833C14.9993 17.4148 15.131 17.7327 15.3655 17.9671C15.5999 18.2016 15.9178 18.3333 16.2493 18.3333ZM7.91602 18.3333C8.24754 18.3333 8.56548 18.2016 8.7999 17.9671C9.03432 17.7327 9.16602 17.4148 9.16602 17.0833C9.16602 16.7517 9.03432 16.4338 8.7999 16.1994C8.56548 15.9649 8.24754 15.8333 7.91602 15.8333C7.5845 15.8333 7.26655 15.9649 7.03213 16.1994C6.79771 16.4338 6.66602 16.7517 6.66602 17.0833C6.66602 17.4148 6.79771 17.7327 7.03213 17.9671C7.26655 18.2016 7.5845 18.3333 7.91602 18.3333Z" fill="#262428" stroke="currentColor" stroke-width="1.5" stroke-linecap="round" stroke-linejoin="round"></path><path d="M4.16602 3.33341H18.3327L16.666 12.5001M4.16602 3.33341L5.83268 12.5001H16.666M4.16602 3.33341C4.02685 2.77758 3.33268 1.66675 1.66602 1.66675M16.666 12.5001H4.35768C2.87102 12.5001 2.08268 13.1509 2.08268 14.1667C2.08268 15.1826 2.87102 15.8334 4.35768 15.8334H16.2493" stroke="currentColor" stroke-width="1.5" stroke-linecap="round" stroke-linejoin="round"></path>
    </svg>