<svg viewBox="0 0 20 20" fill="none" xmlns="http://www.w3.org/2000/svg" width="20" height="20">
      <path d="M6.33333 14.1667V8.33333M18 6.66667V13.3333C18 14.4384 17.561 15.4982 16.7796 16.2796C15.9982 17.061 14.9384 17.5 13.8333 17.5H7.16667C6.0616 17.5 5.00179 17.061 4.22039 16.2796C3.43899 15.4982 3 14.4384 3 13.3333V6.66667C3 5.5616 3.43899 4.50179 4.22039 3.72039C5.00179 2.93899 6.0616 2.5 7.16667 2.5H13.8333C14.9384 2.5 15.9982 2.93899 16.7796 3.72039C17.561 4.50179 18 5.5616 18 6.66667Z" stroke="currentColor" stroke-width="1.5" stroke-linecap="round" stroke-linejoin="round"></path><path d="M9.66732 14.1667V11.4584M9.66732 11.4584V8.33335M9.66732 11.4584C9.66732 8.33335 14.6673 8.33335 14.6673 11.4584V14.1667M6.33398 5.84169L6.34232 5.83252" stroke="currentColor" stroke-width="1.5" stroke-linecap="round" stroke-linejoin="round"></path>
    </svg>